<?xml version="1.0" encoding="utf-8"?>
<!DOCTYPE svg PUBLIC "-//W3C//DTD SVG 20010904//EN" "http://www.w3.org/TR/2001/REC-SVG-20010904/DTD/svg10.dtd">
<svg xmlns="http://www.w3.org/2000/svg" xml:space="preserve" xmlns:xlink="http://www.w3.org/1999/xlink" width="528" height="528" viewBox="0 0 528 528">
<desc></desc>
<rect width="528" height="528" fill="#ffffff" cx="0" cy="0" />
<defs>
<rect id="p" width="16" height="16" />
<circle id="circle" r="8" stroke-width="0" fill="000000" />
<rect id="hor" width="16" height="4" />
<rect id="ver" width="4" height="16" />
<polygon id="3d1" points="0,0 16,0 0,16" stroke-width="0" fill="000000" />
<polygon id="3d2" points="0,16 16,0 16,16" stroke-width="0" fill="#808080" />
</defs>
<g fill="#000000">
<use x="32" y="38" xlink:href="#hor" />
<use x="38" y="32" xlink:href="#ver" />
<use x="48" y="38" xlink:href="#hor" />
<use x="54" y="32" xlink:href="#ver" />
<use x="64" y="38" xlink:href="#hor" />
<use x="70" y="32" xlink:href="#ver" />
<use x="80" y="38" xlink:href="#hor" />
<use x="86" y="32" xlink:href="#ver" />
<use x="96" y="38" xlink:href="#hor" />
<use x="102" y="32" xlink:href="#ver" />
<use x="112" y="38" xlink:href="#hor" />
<use x="118" y="32" xlink:href="#ver" />
<use x="128" y="38" xlink:href="#hor" />
<use x="134" y="32" xlink:href="#ver" />
<use x="160" y="38" xlink:href="#hor" />
<use x="166" y="32" xlink:href="#ver" />
<use x="208" y="38" xlink:href="#hor" />
<use x="214" y="32" xlink:href="#ver" />
<use x="240" y="38" xlink:href="#hor" />
<use x="246" y="32" xlink:href="#ver" />
<use x="256" y="38" xlink:href="#hor" />
<use x="262" y="32" xlink:href="#ver" />
<use x="384" y="38" xlink:href="#hor" />
<use x="390" y="32" xlink:href="#ver" />
<use x="400" y="38" xlink:href="#hor" />
<use x="406" y="32" xlink:href="#ver" />
<use x="416" y="38" xlink:href="#hor" />
<use x="422" y="32" xlink:href="#ver" />
<use x="432" y="38" xlink:href="#hor" />
<use x="438" y="32" xlink:href="#ver" />
<use x="448" y="38" xlink:href="#hor" />
<use x="454" y="32" xlink:href="#ver" />
<use x="464" y="38" xlink:href="#hor" />
<use x="470" y="32" xlink:href="#ver" />
<use x="480" y="38" xlink:href="#hor" />
<use x="486" y="32" xlink:href="#ver" />
<use x="32" y="54" xlink:href="#hor" />
<use x="38" y="48" xlink:href="#ver" />
<use x="128" y="54" xlink:href="#hor" />
<use x="134" y="48" xlink:href="#ver" />
<use x="240" y="54" xlink:href="#hor" />
<use x="246" y="48" xlink:href="#ver" />
<use x="256" y="54" xlink:href="#hor" />
<use x="262" y="48" xlink:href="#ver" />
<use x="272" y="54" xlink:href="#hor" />
<use x="278" y="48" xlink:href="#ver" />
<use x="288" y="54" xlink:href="#hor" />
<use x="294" y="48" xlink:href="#ver" />
<use x="352" y="54" xlink:href="#hor" />
<use x="358" y="48" xlink:href="#ver" />
<use x="384" y="54" xlink:href="#hor" />
<use x="390" y="48" xlink:href="#ver" />
<use x="480" y="54" xlink:href="#hor" />
<use x="486" y="48" xlink:href="#ver" />
<use x="32" y="70" xlink:href="#hor" />
<use x="38" y="64" xlink:href="#ver" />
<use x="64" y="70" xlink:href="#hor" />
<use x="70" y="64" xlink:href="#ver" />
<use x="80" y="70" xlink:href="#hor" />
<use x="86" y="64" xlink:href="#ver" />
<use x="96" y="70" xlink:href="#hor" />
<use x="102" y="64" xlink:href="#ver" />
<use x="128" y="70" xlink:href="#hor" />
<use x="134" y="64" xlink:href="#ver" />
<use x="176" y="70" xlink:href="#hor" />
<use x="182" y="64" xlink:href="#ver" />
<use x="240" y="70" xlink:href="#hor" />
<use x="246" y="64" xlink:href="#ver" />
<use x="272" y="70" xlink:href="#hor" />
<use x="278" y="64" xlink:href="#ver" />
<use x="288" y="70" xlink:href="#hor" />
<use x="294" y="64" xlink:href="#ver" />
<use x="384" y="70" xlink:href="#hor" />
<use x="390" y="64" xlink:href="#ver" />
<use x="416" y="70" xlink:href="#hor" />
<use x="422" y="64" xlink:href="#ver" />
<use x="432" y="70" xlink:href="#hor" />
<use x="438" y="64" xlink:href="#ver" />
<use x="448" y="70" xlink:href="#hor" />
<use x="454" y="64" xlink:href="#ver" />
<use x="480" y="70" xlink:href="#hor" />
<use x="486" y="64" xlink:href="#ver" />
<use x="32" y="86" xlink:href="#hor" />
<use x="38" y="80" xlink:href="#ver" />
<use x="64" y="86" xlink:href="#hor" />
<use x="70" y="80" xlink:href="#ver" />
<use x="80" y="86" xlink:href="#hor" />
<use x="86" y="80" xlink:href="#ver" />
<use x="96" y="86" xlink:href="#hor" />
<use x="102" y="80" xlink:href="#ver" />
<use x="128" y="86" xlink:href="#hor" />
<use x="134" y="80" xlink:href="#ver" />
<use x="176" y="86" xlink:href="#hor" />
<use x="182" y="80" xlink:href="#ver" />
<use x="208" y="86" xlink:href="#hor" />
<use x="214" y="80" xlink:href="#ver" />
<use x="240" y="86" xlink:href="#hor" />
<use x="246" y="80" xlink:href="#ver" />
<use x="256" y="86" xlink:href="#hor" />
<use x="262" y="80" xlink:href="#ver" />
<use x="288" y="86" xlink:href="#hor" />
<use x="294" y="80" xlink:href="#ver" />
<use x="304" y="86" xlink:href="#hor" />
<use x="310" y="80" xlink:href="#ver" />
<use x="384" y="86" xlink:href="#hor" />
<use x="390" y="80" xlink:href="#ver" />
<use x="416" y="86" xlink:href="#hor" />
<use x="422" y="80" xlink:href="#ver" />
<use x="432" y="86" xlink:href="#hor" />
<use x="438" y="80" xlink:href="#ver" />
<use x="448" y="86" xlink:href="#hor" />
<use x="454" y="80" xlink:href="#ver" />
<use x="480" y="86" xlink:href="#hor" />
<use x="486" y="80" xlink:href="#ver" />
<use x="32" y="102" xlink:href="#hor" />
<use x="38" y="96" xlink:href="#ver" />
<use x="64" y="102" xlink:href="#hor" />
<use x="70" y="96" xlink:href="#ver" />
<use x="80" y="102" xlink:href="#hor" />
<use x="86" y="96" xlink:href="#ver" />
<use x="96" y="102" xlink:href="#hor" />
<use x="102" y="96" xlink:href="#ver" />
<use x="128" y="102" xlink:href="#hor" />
<use x="134" y="96" xlink:href="#ver" />
<use x="160" y="102" xlink:href="#hor" />
<use x="166" y="96" xlink:href="#ver" />
<use x="192" y="102" xlink:href="#hor" />
<use x="198" y="96" xlink:href="#ver" />
<use x="208" y="102" xlink:href="#hor" />
<use x="214" y="96" xlink:href="#ver" />
<use x="240" y="102" xlink:href="#hor" />
<use x="246" y="96" xlink:href="#ver" />
<use x="256" y="102" xlink:href="#hor" />
<use x="262" y="96" xlink:href="#ver" />
<use x="288" y="102" xlink:href="#hor" />
<use x="294" y="96" xlink:href="#ver" />
<use x="304" y="102" xlink:href="#hor" />
<use x="310" y="96" xlink:href="#ver" />
<use x="336" y="102" xlink:href="#hor" />
<use x="342" y="96" xlink:href="#ver" />
<use x="352" y="102" xlink:href="#hor" />
<use x="358" y="96" xlink:href="#ver" />
<use x="384" y="102" xlink:href="#hor" />
<use x="390" y="96" xlink:href="#ver" />
<use x="416" y="102" xlink:href="#hor" />
<use x="422" y="96" xlink:href="#ver" />
<use x="432" y="102" xlink:href="#hor" />
<use x="438" y="96" xlink:href="#ver" />
<use x="448" y="102" xlink:href="#hor" />
<use x="454" y="96" xlink:href="#ver" />
<use x="480" y="102" xlink:href="#hor" />
<use x="486" y="96" xlink:href="#ver" />
<use x="32" y="118" xlink:href="#hor" />
<use x="38" y="112" xlink:href="#ver" />
<use x="128" y="118" xlink:href="#hor" />
<use x="134" y="112" xlink:href="#ver" />
<use x="160" y="118" xlink:href="#hor" />
<use x="166" y="112" xlink:href="#ver" />
<use x="176" y="118" xlink:href="#hor" />
<use x="182" y="112" xlink:href="#ver" />
<use x="192" y="118" xlink:href="#hor" />
<use x="198" y="112" xlink:href="#ver" />
<use x="304" y="118" xlink:href="#hor" />
<use x="310" y="112" xlink:href="#ver" />
<use x="384" y="118" xlink:href="#hor" />
<use x="390" y="112" xlink:href="#ver" />
<use x="480" y="118" xlink:href="#hor" />
<use x="486" y="112" xlink:href="#ver" />
<use x="32" y="134" xlink:href="#hor" />
<use x="38" y="128" xlink:href="#ver" />
<use x="48" y="134" xlink:href="#hor" />
<use x="54" y="128" xlink:href="#ver" />
<use x="64" y="134" xlink:href="#hor" />
<use x="70" y="128" xlink:href="#ver" />
<use x="80" y="134" xlink:href="#hor" />
<use x="86" y="128" xlink:href="#ver" />
<use x="96" y="134" xlink:href="#hor" />
<use x="102" y="128" xlink:href="#ver" />
<use x="112" y="134" xlink:href="#hor" />
<use x="118" y="128" xlink:href="#ver" />
<use x="128" y="134" xlink:href="#hor" />
<use x="134" y="128" xlink:href="#ver" />
<use x="160" y="134" xlink:href="#hor" />
<use x="166" y="128" xlink:href="#ver" />
<use x="192" y="134" xlink:href="#hor" />
<use x="198" y="128" xlink:href="#ver" />
<use x="224" y="134" xlink:href="#hor" />
<use x="230" y="128" xlink:href="#ver" />
<use x="256" y="134" xlink:href="#hor" />
<use x="262" y="128" xlink:href="#ver" />
<use x="288" y="134" xlink:href="#hor" />
<use x="294" y="128" xlink:href="#ver" />
<use x="320" y="134" xlink:href="#hor" />
<use x="326" y="128" xlink:href="#ver" />
<use x="352" y="134" xlink:href="#hor" />
<use x="358" y="128" xlink:href="#ver" />
<use x="384" y="134" xlink:href="#hor" />
<use x="390" y="128" xlink:href="#ver" />
<use x="400" y="134" xlink:href="#hor" />
<use x="406" y="128" xlink:href="#ver" />
<use x="416" y="134" xlink:href="#hor" />
<use x="422" y="128" xlink:href="#ver" />
<use x="432" y="134" xlink:href="#hor" />
<use x="438" y="128" xlink:href="#ver" />
<use x="448" y="134" xlink:href="#hor" />
<use x="454" y="128" xlink:href="#ver" />
<use x="464" y="134" xlink:href="#hor" />
<use x="470" y="128" xlink:href="#ver" />
<use x="480" y="134" xlink:href="#hor" />
<use x="486" y="128" xlink:href="#ver" />
<use x="176" y="150" xlink:href="#hor" />
<use x="182" y="144" xlink:href="#ver" />
<use x="192" y="150" xlink:href="#hor" />
<use x="198" y="144" xlink:href="#ver" />
<use x="208" y="150" xlink:href="#hor" />
<use x="214" y="144" xlink:href="#ver" />
<use x="256" y="150" xlink:href="#hor" />
<use x="262" y="144" xlink:href="#ver" />
<use x="304" y="150" xlink:href="#hor" />
<use x="310" y="144" xlink:href="#ver" />
<use x="320" y="150" xlink:href="#hor" />
<use x="326" y="144" xlink:href="#ver" />
<use x="336" y="150" xlink:href="#hor" />
<use x="342" y="144" xlink:href="#ver" />
<use x="352" y="150" xlink:href="#hor" />
<use x="358" y="144" xlink:href="#ver" />
<use x="48" y="166" xlink:href="#hor" />
<use x="54" y="160" xlink:href="#ver" />
<use x="64" y="166" xlink:href="#hor" />
<use x="70" y="160" xlink:href="#ver" />
<use x="80" y="166" xlink:href="#hor" />
<use x="86" y="160" xlink:href="#ver" />
<use x="96" y="166" xlink:href="#hor" />
<use x="102" y="160" xlink:href="#ver" />
<use x="112" y="166" xlink:href="#hor" />
<use x="118" y="160" xlink:href="#ver" />
<use x="128" y="166" xlink:href="#hor" />
<use x="134" y="160" xlink:href="#ver" />
<use x="144" y="166" xlink:href="#hor" />
<use x="150" y="160" xlink:href="#ver" />
<use x="176" y="166" xlink:href="#hor" />
<use x="182" y="160" xlink:href="#ver" />
<use x="192" y="166" xlink:href="#hor" />
<use x="198" y="160" xlink:href="#ver" />
<use x="256" y="166" xlink:href="#hor" />
<use x="262" y="160" xlink:href="#ver" />
<use x="288" y="166" xlink:href="#hor" />
<use x="294" y="160" xlink:href="#ver" />
<use x="336" y="166" xlink:href="#hor" />
<use x="342" y="160" xlink:href="#ver" />
<use x="400" y="166" xlink:href="#hor" />
<use x="406" y="160" xlink:href="#ver" />
<use x="416" y="166" xlink:href="#hor" />
<use x="422" y="160" xlink:href="#ver" />
<use x="480" y="166" xlink:href="#hor" />
<use x="486" y="160" xlink:href="#ver" />
<use x="32" y="182" xlink:href="#hor" />
<use x="38" y="176" xlink:href="#ver" />
<use x="64" y="182" xlink:href="#hor" />
<use x="70" y="176" xlink:href="#ver" />
<use x="192" y="182" xlink:href="#hor" />
<use x="198" y="176" xlink:href="#ver" />
<use x="240" y="182" xlink:href="#hor" />
<use x="246" y="176" xlink:href="#ver" />
<use x="272" y="182" xlink:href="#hor" />
<use x="278" y="176" xlink:href="#ver" />
<use x="320" y="182" xlink:href="#hor" />
<use x="326" y="176" xlink:href="#ver" />
<use x="352" y="182" xlink:href="#hor" />
<use x="358" y="176" xlink:href="#ver" />
<use x="368" y="182" xlink:href="#hor" />
<use x="374" y="176" xlink:href="#ver" />
<use x="400" y="182" xlink:href="#hor" />
<use x="406" y="176" xlink:href="#ver" />
<use x="432" y="182" xlink:href="#hor" />
<use x="438" y="176" xlink:href="#ver" />
<use x="480" y="182" xlink:href="#hor" />
<use x="486" y="176" xlink:href="#ver" />
<use x="48" y="198" xlink:href="#hor" />
<use x="54" y="192" xlink:href="#ver" />
<use x="80" y="198" xlink:href="#hor" />
<use x="86" y="192" xlink:href="#ver" />
<use x="128" y="198" xlink:href="#hor" />
<use x="134" y="192" xlink:href="#ver" />
<use x="192" y="198" xlink:href="#hor" />
<use x="198" y="192" xlink:href="#ver" />
<use x="208" y="198" xlink:href="#hor" />
<use x="214" y="192" xlink:href="#ver" />
<use x="224" y="198" xlink:href="#hor" />
<use x="230" y="192" xlink:href="#ver" />
<use x="304" y="198" xlink:href="#hor" />
<use x="310" y="192" xlink:href="#ver" />
<use x="320" y="198" xlink:href="#hor" />
<use x="326" y="192" xlink:href="#ver" />
<use x="336" y="198" xlink:href="#hor" />
<use x="342" y="192" xlink:href="#ver" />
<use x="368" y="198" xlink:href="#hor" />
<use x="374" y="192" xlink:href="#ver" />
<use x="384" y="198" xlink:href="#hor" />
<use x="390" y="192" xlink:href="#ver" />
<use x="432" y="198" xlink:href="#hor" />
<use x="438" y="192" xlink:href="#ver" />
<use x="48" y="214" xlink:href="#hor" />
<use x="54" y="208" xlink:href="#ver" />
<use x="96" y="214" xlink:href="#hor" />
<use x="102" y="208" xlink:href="#ver" />
<use x="112" y="214" xlink:href="#hor" />
<use x="118" y="208" xlink:href="#ver" />
<use x="176" y="214" xlink:href="#hor" />
<use x="182" y="208" xlink:href="#ver" />
<use x="192" y="214" xlink:href="#hor" />
<use x="198" y="208" xlink:href="#ver" />
<use x="208" y="214" xlink:href="#hor" />
<use x="214" y="208" xlink:href="#ver" />
<use x="224" y="214" xlink:href="#hor" />
<use x="230" y="208" xlink:href="#ver" />
<use x="256" y="214" xlink:href="#hor" />
<use x="262" y="208" xlink:href="#ver" />
<use x="272" y="214" xlink:href="#hor" />
<use x="278" y="208" xlink:href="#ver" />
<use x="288" y="214" xlink:href="#hor" />
<use x="294" y="208" xlink:href="#ver" />
<use x="336" y="214" xlink:href="#hor" />
<use x="342" y="208" xlink:href="#ver" />
<use x="352" y="214" xlink:href="#hor" />
<use x="358" y="208" xlink:href="#ver" />
<use x="368" y="214" xlink:href="#hor" />
<use x="374" y="208" xlink:href="#ver" />
<use x="384" y="214" xlink:href="#hor" />
<use x="390" y="208" xlink:href="#ver" />
<use x="400" y="214" xlink:href="#hor" />
<use x="406" y="208" xlink:href="#ver" />
<use x="432" y="214" xlink:href="#hor" />
<use x="438" y="208" xlink:href="#ver" />
<use x="464" y="214" xlink:href="#hor" />
<use x="470" y="208" xlink:href="#ver" />
<use x="32" y="230" xlink:href="#hor" />
<use x="38" y="224" xlink:href="#ver" />
<use x="64" y="230" xlink:href="#hor" />
<use x="70" y="224" xlink:href="#ver" />
<use x="80" y="230" xlink:href="#hor" />
<use x="86" y="224" xlink:href="#ver" />
<use x="96" y="230" xlink:href="#hor" />
<use x="102" y="224" xlink:href="#ver" />
<use x="128" y="230" xlink:href="#hor" />
<use x="134" y="224" xlink:href="#ver" />
<use x="144" y="230" xlink:href="#hor" />
<use x="150" y="224" xlink:href="#ver" />
<use x="160" y="230" xlink:href="#hor" />
<use x="166" y="224" xlink:href="#ver" />
<use x="176" y="230" xlink:href="#hor" />
<use x="182" y="224" xlink:href="#ver" />
<use x="208" y="230" xlink:href="#hor" />
<use x="214" y="224" xlink:href="#ver" />
<use x="224" y="230" xlink:href="#hor" />
<use x="230" y="224" xlink:href="#ver" />
<use x="240" y="230" xlink:href="#hor" />
<use x="246" y="224" xlink:href="#ver" />
<use x="272" y="230" xlink:href="#hor" />
<use x="278" y="224" xlink:href="#ver" />
<use x="304" y="230" xlink:href="#hor" />
<use x="310" y="224" xlink:href="#ver" />
<use x="336" y="230" xlink:href="#hor" />
<use x="342" y="224" xlink:href="#ver" />
<use x="368" y="230" xlink:href="#hor" />
<use x="374" y="224" xlink:href="#ver" />
<use x="400" y="230" xlink:href="#hor" />
<use x="406" y="224" xlink:href="#ver" />
<use x="448" y="230" xlink:href="#hor" />
<use x="454" y="224" xlink:href="#ver" />
<use x="464" y="230" xlink:href="#hor" />
<use x="470" y="224" xlink:href="#ver" />
<use x="480" y="230" xlink:href="#hor" />
<use x="486" y="224" xlink:href="#ver" />
<use x="48" y="246" xlink:href="#hor" />
<use x="54" y="240" xlink:href="#ver" />
<use x="80" y="246" xlink:href="#hor" />
<use x="86" y="240" xlink:href="#ver" />
<use x="144" y="246" xlink:href="#hor" />
<use x="150" y="240" xlink:href="#ver" />
<use x="160" y="246" xlink:href="#hor" />
<use x="166" y="240" xlink:href="#ver" />
<use x="224" y="246" xlink:href="#hor" />
<use x="230" y="240" xlink:href="#ver" />
<use x="256" y="246" xlink:href="#hor" />
<use x="262" y="240" xlink:href="#ver" />
<use x="272" y="246" xlink:href="#hor" />
<use x="278" y="240" xlink:href="#ver" />
<use x="336" y="246" xlink:href="#hor" />
<use x="342" y="240" xlink:href="#ver" />
<use x="352" y="246" xlink:href="#hor" />
<use x="358" y="240" xlink:href="#ver" />
<use x="368" y="246" xlink:href="#hor" />
<use x="374" y="240" xlink:href="#ver" />
<use x="384" y="246" xlink:href="#hor" />
<use x="390" y="240" xlink:href="#ver" />
<use x="416" y="246" xlink:href="#hor" />
<use x="422" y="240" xlink:href="#ver" />
<use x="432" y="246" xlink:href="#hor" />
<use x="438" y="240" xlink:href="#ver" />
<use x="464" y="246" xlink:href="#hor" />
<use x="470" y="240" xlink:href="#ver" />
<use x="480" y="246" xlink:href="#hor" />
<use x="486" y="240" xlink:href="#ver" />
<use x="32" y="262" xlink:href="#hor" />
<use x="38" y="256" xlink:href="#ver" />
<use x="48" y="262" xlink:href="#hor" />
<use x="54" y="256" xlink:href="#ver" />
<use x="96" y="262" xlink:href="#hor" />
<use x="102" y="256" xlink:href="#ver" />
<use x="112" y="262" xlink:href="#hor" />
<use x="118" y="256" xlink:href="#ver" />
<use x="128" y="262" xlink:href="#hor" />
<use x="134" y="256" xlink:href="#ver" />
<use x="160" y="262" xlink:href="#hor" />
<use x="166" y="256" xlink:href="#ver" />
<use x="176" y="262" xlink:href="#hor" />
<use x="182" y="256" xlink:href="#ver" />
<use x="192" y="262" xlink:href="#hor" />
<use x="198" y="256" xlink:href="#ver" />
<use x="208" y="262" xlink:href="#hor" />
<use x="214" y="256" xlink:href="#ver" />
<use x="240" y="262" xlink:href="#hor" />
<use x="246" y="256" xlink:href="#ver" />
<use x="256" y="262" xlink:href="#hor" />
<use x="262" y="256" xlink:href="#ver" />
<use x="272" y="262" xlink:href="#hor" />
<use x="278" y="256" xlink:href="#ver" />
<use x="288" y="262" xlink:href="#hor" />
<use x="294" y="256" xlink:href="#ver" />
<use x="320" y="262" xlink:href="#hor" />
<use x="326" y="256" xlink:href="#ver" />
<use x="352" y="262" xlink:href="#hor" />
<use x="358" y="256" xlink:href="#ver" />
<use x="368" y="262" xlink:href="#hor" />
<use x="374" y="256" xlink:href="#ver" />
<use x="400" y="262" xlink:href="#hor" />
<use x="406" y="256" xlink:href="#ver" />
<use x="64" y="278" xlink:href="#hor" />
<use x="70" y="272" xlink:href="#ver" />
<use x="80" y="278" xlink:href="#hor" />
<use x="86" y="272" xlink:href="#ver" />
<use x="96" y="278" xlink:href="#hor" />
<use x="102" y="272" xlink:href="#ver" />
<use x="144" y="278" xlink:href="#hor" />
<use x="150" y="272" xlink:href="#ver" />
<use x="160" y="278" xlink:href="#hor" />
<use x="166" y="272" xlink:href="#ver" />
<use x="192" y="278" xlink:href="#hor" />
<use x="198" y="272" xlink:href="#ver" />
<use x="208" y="278" xlink:href="#hor" />
<use x="214" y="272" xlink:href="#ver" />
<use x="240" y="278" xlink:href="#hor" />
<use x="246" y="272" xlink:href="#ver" />
<use x="256" y="278" xlink:href="#hor" />
<use x="262" y="272" xlink:href="#ver" />
<use x="272" y="278" xlink:href="#hor" />
<use x="278" y="272" xlink:href="#ver" />
<use x="288" y="278" xlink:href="#hor" />
<use x="294" y="272" xlink:href="#ver" />
<use x="336" y="278" xlink:href="#hor" />
<use x="342" y="272" xlink:href="#ver" />
<use x="352" y="278" xlink:href="#hor" />
<use x="358" y="272" xlink:href="#ver" />
<use x="416" y="278" xlink:href="#hor" />
<use x="422" y="272" xlink:href="#ver" />
<use x="432" y="278" xlink:href="#hor" />
<use x="438" y="272" xlink:href="#ver" />
<use x="464" y="278" xlink:href="#hor" />
<use x="470" y="272" xlink:href="#ver" />
<use x="48" y="294" xlink:href="#hor" />
<use x="54" y="288" xlink:href="#ver" />
<use x="64" y="294" xlink:href="#hor" />
<use x="70" y="288" xlink:href="#ver" />
<use x="112" y="294" xlink:href="#hor" />
<use x="118" y="288" xlink:href="#ver" />
<use x="128" y="294" xlink:href="#hor" />
<use x="134" y="288" xlink:href="#ver" />
<use x="160" y="294" xlink:href="#hor" />
<use x="166" y="288" xlink:href="#ver" />
<use x="176" y="294" xlink:href="#hor" />
<use x="182" y="288" xlink:href="#ver" />
<use x="208" y="294" xlink:href="#hor" />
<use x="214" y="288" xlink:href="#ver" />
<use x="256" y="294" xlink:href="#hor" />
<use x="262" y="288" xlink:href="#ver" />
<use x="320" y="294" xlink:href="#hor" />
<use x="326" y="288" xlink:href="#ver" />
<use x="336" y="294" xlink:href="#hor" />
<use x="342" y="288" xlink:href="#ver" />
<use x="352" y="294" xlink:href="#hor" />
<use x="358" y="288" xlink:href="#ver" />
<use x="368" y="294" xlink:href="#hor" />
<use x="374" y="288" xlink:href="#ver" />
<use x="416" y="294" xlink:href="#hor" />
<use x="422" y="288" xlink:href="#ver" />
<use x="432" y="294" xlink:href="#hor" />
<use x="438" y="288" xlink:href="#ver" />
<use x="448" y="294" xlink:href="#hor" />
<use x="454" y="288" xlink:href="#ver" />
<use x="32" y="310" xlink:href="#hor" />
<use x="38" y="304" xlink:href="#ver" />
<use x="64" y="310" xlink:href="#hor" />
<use x="70" y="304" xlink:href="#ver" />
<use x="80" y="310" xlink:href="#hor" />
<use x="86" y="304" xlink:href="#ver" />
<use x="96" y="310" xlink:href="#hor" />
<use x="102" y="304" xlink:href="#ver" />
<use x="112" y="310" xlink:href="#hor" />
<use x="118" y="304" xlink:href="#ver" />
<use x="160" y="310" xlink:href="#hor" />
<use x="166" y="304" xlink:href="#ver" />
<use x="176" y="310" xlink:href="#hor" />
<use x="182" y="304" xlink:href="#ver" />
<use x="208" y="310" xlink:href="#hor" />
<use x="214" y="304" xlink:href="#ver" />
<use x="240" y="310" xlink:href="#hor" />
<use x="246" y="304" xlink:href="#ver" />
<use x="272" y="310" xlink:href="#hor" />
<use x="278" y="304" xlink:href="#ver" />
<use x="288" y="310" xlink:href="#hor" />
<use x="294" y="304" xlink:href="#ver" />
<use x="416" y="310" xlink:href="#hor" />
<use x="422" y="304" xlink:href="#ver" />
<use x="464" y="310" xlink:href="#hor" />
<use x="470" y="304" xlink:href="#ver" />
<use x="480" y="310" xlink:href="#hor" />
<use x="486" y="304" xlink:href="#ver" />
<use x="32" y="326" xlink:href="#hor" />
<use x="38" y="320" xlink:href="#ver" />
<use x="64" y="326" xlink:href="#hor" />
<use x="70" y="320" xlink:href="#ver" />
<use x="80" y="326" xlink:href="#hor" />
<use x="86" y="320" xlink:href="#ver" />
<use x="112" y="326" xlink:href="#hor" />
<use x="118" y="320" xlink:href="#ver" />
<use x="128" y="326" xlink:href="#hor" />
<use x="134" y="320" xlink:href="#ver" />
<use x="144" y="326" xlink:href="#hor" />
<use x="150" y="320" xlink:href="#ver" />
<use x="208" y="326" xlink:href="#hor" />
<use x="214" y="320" xlink:href="#ver" />
<use x="224" y="326" xlink:href="#hor" />
<use x="230" y="320" xlink:href="#ver" />
<use x="352" y="326" xlink:href="#hor" />
<use x="358" y="320" xlink:href="#ver" />
<use x="384" y="326" xlink:href="#hor" />
<use x="390" y="320" xlink:href="#ver" />
<use x="400" y="326" xlink:href="#hor" />
<use x="406" y="320" xlink:href="#ver" />
<use x="432" y="326" xlink:href="#hor" />
<use x="438" y="320" xlink:href="#ver" />
<use x="448" y="326" xlink:href="#hor" />
<use x="454" y="320" xlink:href="#ver" />
<use x="32" y="342" xlink:href="#hor" />
<use x="38" y="336" xlink:href="#ver" />
<use x="64" y="342" xlink:href="#hor" />
<use x="70" y="336" xlink:href="#ver" />
<use x="80" y="342" xlink:href="#hor" />
<use x="86" y="336" xlink:href="#ver" />
<use x="96" y="342" xlink:href="#hor" />
<use x="102" y="336" xlink:href="#ver" />
<use x="144" y="342" xlink:href="#hor" />
<use x="150" y="336" xlink:href="#ver" />
<use x="240" y="342" xlink:href="#hor" />
<use x="246" y="336" xlink:href="#ver" />
<use x="288" y="342" xlink:href="#hor" />
<use x="294" y="336" xlink:href="#ver" />
<use x="320" y="342" xlink:href="#hor" />
<use x="326" y="336" xlink:href="#ver" />
<use x="384" y="342" xlink:href="#hor" />
<use x="390" y="336" xlink:href="#ver" />
<use x="400" y="342" xlink:href="#hor" />
<use x="406" y="336" xlink:href="#ver" />
<use x="432" y="342" xlink:href="#hor" />
<use x="438" y="336" xlink:href="#ver" />
<use x="32" y="358" xlink:href="#hor" />
<use x="38" y="352" xlink:href="#ver" />
<use x="80" y="358" xlink:href="#hor" />
<use x="86" y="352" xlink:href="#ver" />
<use x="128" y="358" xlink:href="#hor" />
<use x="134" y="352" xlink:href="#ver" />
<use x="176" y="358" xlink:href="#hor" />
<use x="182" y="352" xlink:href="#ver" />
<use x="192" y="358" xlink:href="#hor" />
<use x="198" y="352" xlink:href="#ver" />
<use x="208" y="358" xlink:href="#hor" />
<use x="214" y="352" xlink:href="#ver" />
<use x="256" y="358" xlink:href="#hor" />
<use x="262" y="352" xlink:href="#ver" />
<use x="304" y="358" xlink:href="#hor" />
<use x="310" y="352" xlink:href="#ver" />
<use x="352" y="358" xlink:href="#hor" />
<use x="358" y="352" xlink:href="#ver" />
<use x="368" y="358" xlink:href="#hor" />
<use x="374" y="352" xlink:href="#ver" />
<use x="384" y="358" xlink:href="#hor" />
<use x="390" y="352" xlink:href="#ver" />
<use x="400" y="358" xlink:href="#hor" />
<use x="406" y="352" xlink:href="#ver" />
<use x="416" y="358" xlink:href="#hor" />
<use x="422" y="352" xlink:href="#ver" />
<use x="448" y="358" xlink:href="#hor" />
<use x="454" y="352" xlink:href="#ver" />
<use x="160" y="374" xlink:href="#hor" />
<use x="166" y="368" xlink:href="#ver" />
<use x="176" y="374" xlink:href="#hor" />
<use x="182" y="368" xlink:href="#ver" />
<use x="192" y="374" xlink:href="#hor" />
<use x="198" y="368" xlink:href="#ver" />
<use x="224" y="374" xlink:href="#hor" />
<use x="230" y="368" xlink:href="#ver" />
<use x="240" y="374" xlink:href="#hor" />
<use x="246" y="368" xlink:href="#ver" />
<use x="304" y="374" xlink:href="#hor" />
<use x="310" y="368" xlink:href="#ver" />
<use x="320" y="374" xlink:href="#hor" />
<use x="326" y="368" xlink:href="#ver" />
<use x="352" y="374" xlink:href="#hor" />
<use x="358" y="368" xlink:href="#ver" />
<use x="416" y="374" xlink:href="#hor" />
<use x="422" y="368" xlink:href="#ver" />
<use x="432" y="374" xlink:href="#hor" />
<use x="438" y="368" xlink:href="#ver" />
<use x="480" y="374" xlink:href="#hor" />
<use x="486" y="368" xlink:href="#ver" />
<use x="32" y="390" xlink:href="#hor" />
<use x="38" y="384" xlink:href="#ver" />
<use x="48" y="390" xlink:href="#hor" />
<use x="54" y="384" xlink:href="#ver" />
<use x="64" y="390" xlink:href="#hor" />
<use x="70" y="384" xlink:href="#ver" />
<use x="80" y="390" xlink:href="#hor" />
<use x="86" y="384" xlink:href="#ver" />
<use x="96" y="390" xlink:href="#hor" />
<use x="102" y="384" xlink:href="#ver" />
<use x="112" y="390" xlink:href="#hor" />
<use x="118" y="384" xlink:href="#ver" />
<use x="128" y="390" xlink:href="#hor" />
<use x="134" y="384" xlink:href="#ver" />
<use x="160" y="390" xlink:href="#hor" />
<use x="166" y="384" xlink:href="#ver" />
<use x="176" y="390" xlink:href="#hor" />
<use x="182" y="384" xlink:href="#ver" />
<use x="208" y="390" xlink:href="#hor" />
<use x="214" y="384" xlink:href="#ver" />
<use x="240" y="390" xlink:href="#hor" />
<use x="246" y="384" xlink:href="#ver" />
<use x="272" y="390" xlink:href="#hor" />
<use x="278" y="384" xlink:href="#ver" />
<use x="288" y="390" xlink:href="#hor" />
<use x="294" y="384" xlink:href="#ver" />
<use x="304" y="390" xlink:href="#hor" />
<use x="310" y="384" xlink:href="#ver" />
<use x="336" y="390" xlink:href="#hor" />
<use x="342" y="384" xlink:href="#ver" />
<use x="352" y="390" xlink:href="#hor" />
<use x="358" y="384" xlink:href="#ver" />
<use x="384" y="390" xlink:href="#hor" />
<use x="390" y="384" xlink:href="#ver" />
<use x="416" y="390" xlink:href="#hor" />
<use x="422" y="384" xlink:href="#ver" />
<use x="32" y="406" xlink:href="#hor" />
<use x="38" y="400" xlink:href="#ver" />
<use x="128" y="406" xlink:href="#hor" />
<use x="134" y="400" xlink:href="#ver" />
<use x="160" y="406" xlink:href="#hor" />
<use x="166" y="400" xlink:href="#ver" />
<use x="176" y="406" xlink:href="#hor" />
<use x="182" y="400" xlink:href="#ver" />
<use x="224" y="406" xlink:href="#hor" />
<use x="230" y="400" xlink:href="#ver" />
<use x="240" y="406" xlink:href="#hor" />
<use x="246" y="400" xlink:href="#ver" />
<use x="272" y="406" xlink:href="#hor" />
<use x="278" y="400" xlink:href="#ver" />
<use x="304" y="406" xlink:href="#hor" />
<use x="310" y="400" xlink:href="#ver" />
<use x="320" y="406" xlink:href="#hor" />
<use x="326" y="400" xlink:href="#ver" />
<use x="336" y="406" xlink:href="#hor" />
<use x="342" y="400" xlink:href="#ver" />
<use x="352" y="406" xlink:href="#hor" />
<use x="358" y="400" xlink:href="#ver" />
<use x="416" y="406" xlink:href="#hor" />
<use x="422" y="400" xlink:href="#ver" />
<use x="432" y="406" xlink:href="#hor" />
<use x="438" y="400" xlink:href="#ver" />
<use x="464" y="406" xlink:href="#hor" />
<use x="470" y="400" xlink:href="#ver" />
<use x="480" y="406" xlink:href="#hor" />
<use x="486" y="400" xlink:href="#ver" />
<use x="32" y="422" xlink:href="#hor" />
<use x="38" y="416" xlink:href="#ver" />
<use x="64" y="422" xlink:href="#hor" />
<use x="70" y="416" xlink:href="#ver" />
<use x="80" y="422" xlink:href="#hor" />
<use x="86" y="416" xlink:href="#ver" />
<use x="96" y="422" xlink:href="#hor" />
<use x="102" y="416" xlink:href="#ver" />
<use x="128" y="422" xlink:href="#hor" />
<use x="134" y="416" xlink:href="#ver" />
<use x="160" y="422" xlink:href="#hor" />
<use x="166" y="416" xlink:href="#ver" />
<use x="176" y="422" xlink:href="#hor" />
<use x="182" y="416" xlink:href="#ver" />
<use x="192" y="422" xlink:href="#hor" />
<use x="198" y="416" xlink:href="#ver" />
<use x="224" y="422" xlink:href="#hor" />
<use x="230" y="416" xlink:href="#ver" />
<use x="256" y="422" xlink:href="#hor" />
<use x="262" y="416" xlink:href="#ver" />
<use x="272" y="422" xlink:href="#hor" />
<use x="278" y="416" xlink:href="#ver" />
<use x="288" y="422" xlink:href="#hor" />
<use x="294" y="416" xlink:href="#ver" />
<use x="352" y="422" xlink:href="#hor" />
<use x="358" y="416" xlink:href="#ver" />
<use x="368" y="422" xlink:href="#hor" />
<use x="374" y="416" xlink:href="#ver" />
<use x="384" y="422" xlink:href="#hor" />
<use x="390" y="416" xlink:href="#ver" />
<use x="400" y="422" xlink:href="#hor" />
<use x="406" y="416" xlink:href="#ver" />
<use x="416" y="422" xlink:href="#hor" />
<use x="422" y="416" xlink:href="#ver" />
<use x="432" y="422" xlink:href="#hor" />
<use x="438" y="416" xlink:href="#ver" />
<use x="448" y="422" xlink:href="#hor" />
<use x="454" y="416" xlink:href="#ver" />
<use x="480" y="422" xlink:href="#hor" />
<use x="486" y="416" xlink:href="#ver" />
<use x="32" y="438" xlink:href="#hor" />
<use x="38" y="432" xlink:href="#ver" />
<use x="64" y="438" xlink:href="#hor" />
<use x="70" y="432" xlink:href="#ver" />
<use x="80" y="438" xlink:href="#hor" />
<use x="86" y="432" xlink:href="#ver" />
<use x="96" y="438" xlink:href="#hor" />
<use x="102" y="432" xlink:href="#ver" />
<use x="128" y="438" xlink:href="#hor" />
<use x="134" y="432" xlink:href="#ver" />
<use x="160" y="438" xlink:href="#hor" />
<use x="166" y="432" xlink:href="#ver" />
<use x="176" y="438" xlink:href="#hor" />
<use x="182" y="432" xlink:href="#ver" />
<use x="192" y="438" xlink:href="#hor" />
<use x="198" y="432" xlink:href="#ver" />
<use x="208" y="438" xlink:href="#hor" />
<use x="214" y="432" xlink:href="#ver" />
<use x="224" y="438" xlink:href="#hor" />
<use x="230" y="432" xlink:href="#ver" />
<use x="240" y="438" xlink:href="#hor" />
<use x="246" y="432" xlink:href="#ver" />
<use x="256" y="438" xlink:href="#hor" />
<use x="262" y="432" xlink:href="#ver" />
<use x="272" y="438" xlink:href="#hor" />
<use x="278" y="432" xlink:href="#ver" />
<use x="304" y="438" xlink:href="#hor" />
<use x="310" y="432" xlink:href="#ver" />
<use x="320" y="438" xlink:href="#hor" />
<use x="326" y="432" xlink:href="#ver" />
<use x="336" y="438" xlink:href="#hor" />
<use x="342" y="432" xlink:href="#ver" />
<use x="352" y="438" xlink:href="#hor" />
<use x="358" y="432" xlink:href="#ver" />
<use x="368" y="438" xlink:href="#hor" />
<use x="374" y="432" xlink:href="#ver" />
<use x="400" y="438" xlink:href="#hor" />
<use x="406" y="432" xlink:href="#ver" />
<use x="448" y="438" xlink:href="#hor" />
<use x="454" y="432" xlink:href="#ver" />
<use x="32" y="454" xlink:href="#hor" />
<use x="38" y="448" xlink:href="#ver" />
<use x="64" y="454" xlink:href="#hor" />
<use x="70" y="448" xlink:href="#ver" />
<use x="80" y="454" xlink:href="#hor" />
<use x="86" y="448" xlink:href="#ver" />
<use x="96" y="454" xlink:href="#hor" />
<use x="102" y="448" xlink:href="#ver" />
<use x="128" y="454" xlink:href="#hor" />
<use x="134" y="448" xlink:href="#ver" />
<use x="160" y="454" xlink:href="#hor" />
<use x="166" y="448" xlink:href="#ver" />
<use x="176" y="454" xlink:href="#hor" />
<use x="182" y="448" xlink:href="#ver" />
<use x="192" y="454" xlink:href="#hor" />
<use x="198" y="448" xlink:href="#ver" />
<use x="224" y="454" xlink:href="#hor" />
<use x="230" y="448" xlink:href="#ver" />
<use x="240" y="454" xlink:href="#hor" />
<use x="246" y="448" xlink:href="#ver" />
<use x="272" y="454" xlink:href="#hor" />
<use x="278" y="448" xlink:href="#ver" />
<use x="288" y="454" xlink:href="#hor" />
<use x="294" y="448" xlink:href="#ver" />
<use x="336" y="454" xlink:href="#hor" />
<use x="342" y="448" xlink:href="#ver" />
<use x="352" y="454" xlink:href="#hor" />
<use x="358" y="448" xlink:href="#ver" />
<use x="368" y="454" xlink:href="#hor" />
<use x="374" y="448" xlink:href="#ver" />
<use x="384" y="454" xlink:href="#hor" />
<use x="390" y="448" xlink:href="#ver" />
<use x="400" y="454" xlink:href="#hor" />
<use x="406" y="448" xlink:href="#ver" />
<use x="416" y="454" xlink:href="#hor" />
<use x="422" y="448" xlink:href="#ver" />
<use x="464" y="454" xlink:href="#hor" />
<use x="470" y="448" xlink:href="#ver" />
<use x="32" y="470" xlink:href="#hor" />
<use x="38" y="464" xlink:href="#ver" />
<use x="128" y="470" xlink:href="#hor" />
<use x="134" y="464" xlink:href="#ver" />
<use x="160" y="470" xlink:href="#hor" />
<use x="166" y="464" xlink:href="#ver" />
<use x="192" y="470" xlink:href="#hor" />
<use x="198" y="464" xlink:href="#ver" />
<use x="208" y="470" xlink:href="#hor" />
<use x="214" y="464" xlink:href="#ver" />
<use x="224" y="470" xlink:href="#hor" />
<use x="230" y="464" xlink:href="#ver" />
<use x="256" y="470" xlink:href="#hor" />
<use x="262" y="464" xlink:href="#ver" />
<use x="272" y="470" xlink:href="#hor" />
<use x="278" y="464" xlink:href="#ver" />
<use x="320" y="470" xlink:href="#hor" />
<use x="326" y="464" xlink:href="#ver" />
<use x="384" y="470" xlink:href="#hor" />
<use x="390" y="464" xlink:href="#ver" />
<use x="416" y="470" xlink:href="#hor" />
<use x="422" y="464" xlink:href="#ver" />
<use x="464" y="470" xlink:href="#hor" />
<use x="470" y="464" xlink:href="#ver" />
<use x="32" y="486" xlink:href="#hor" />
<use x="38" y="480" xlink:href="#ver" />
<use x="48" y="486" xlink:href="#hor" />
<use x="54" y="480" xlink:href="#ver" />
<use x="64" y="486" xlink:href="#hor" />
<use x="70" y="480" xlink:href="#ver" />
<use x="80" y="486" xlink:href="#hor" />
<use x="86" y="480" xlink:href="#ver" />
<use x="96" y="486" xlink:href="#hor" />
<use x="102" y="480" xlink:href="#ver" />
<use x="112" y="486" xlink:href="#hor" />
<use x="118" y="480" xlink:href="#ver" />
<use x="128" y="486" xlink:href="#hor" />
<use x="134" y="480" xlink:href="#ver" />
<use x="240" y="486" xlink:href="#hor" />
<use x="246" y="480" xlink:href="#ver" />
<use x="272" y="486" xlink:href="#hor" />
<use x="278" y="480" xlink:href="#ver" />
<use x="304" y="486" xlink:href="#hor" />
<use x="310" y="480" xlink:href="#ver" />
<use x="336" y="486" xlink:href="#hor" />
<use x="342" y="480" xlink:href="#ver" />
<use x="352" y="486" xlink:href="#hor" />
<use x="358" y="480" xlink:href="#ver" />
<use x="368" y="486" xlink:href="#hor" />
<use x="374" y="480" xlink:href="#ver" />
<use x="384" y="486" xlink:href="#hor" />
<use x="390" y="480" xlink:href="#ver" />
<use x="416" y="486" xlink:href="#hor" />
<use x="422" y="480" xlink:href="#ver" />
<use x="448" y="486" xlink:href="#hor" />
<use x="454" y="480" xlink:href="#ver" />
</g>
</svg>