<?xml version="1.0" encoding="UTF-8" standalone="no"?>
<svg
   xmlns:dc="http://purl.org/dc/elements/1.1/"
   xmlns:cc="http://creativecommons.org/ns#"
   xmlns:rdf="http://www.w3.org/1999/02/22-rdf-syntax-ns#"
   xmlns:svg="http://www.w3.org/2000/svg"
   xmlns="http://www.w3.org/2000/svg"
   xmlns:sodipodi="http://sodipodi.sourceforge.net/DTD/sodipodi-0.dtd"
   xmlns:inkscape="http://www.inkscape.org/namespaces/inkscape"
   version="1.1"
   id="Layer_2"
   x="0px"
   y="0px"
   viewBox="743.9364 45.799 1884.7477 582.35562"
   enable-background="new 743.9364 45.799 1072.1272 1508.4021"
   xml:space="preserve"
   inkscape:version="0.92.4 5da689c313, 2019-01-14"
   sodipodi:docname="onestla_2_banniere_mastodon.svg"
   width="1884.7477"
   height="582.35559"
   inkscape:export-filename="/home/edouard/Téléchargements/onestla_2_banniere_mastodon.png"
   inkscape:export-xdpi="300"
   inkscape:export-ydpi="300"><metadata
     id="metadata23"><rdf:RDF><cc:Work
         rdf:about=""><dc:format>image/svg+xml</dc:format><dc:type
           rdf:resource="http://purl.org/dc/dcmitype/StillImage" /><dc:title></dc:title></cc:Work></rdf:RDF></metadata><defs
     id="defs21" /><sodipodi:namedview
     pagecolor="#ffffff"
     bordercolor="#666666"
     borderopacity="1"
     objecttolerance="10"
     gridtolerance="10"
     guidetolerance="10"
     inkscape:pageopacity="0"
     inkscape:pageshadow="2"
     inkscape:window-width="1918"
     inkscape:window-height="1046"
     id="namedview19"
     showgrid="false"
     inkscape:zoom="0.60611138"
     inkscape:cx="974.19471"
     inkscape:cy="173.10845"
     inkscape:current-layer="layer3"
     inkscape:window-x="0"
     inkscape:window-y="26"
     inkscape:window-maximized="0"
     units="px"
     inkscape:document-units="px"
     fit-margin-top="0"
     fit-margin-left="0"
     fit-margin-right="0"
     fit-margin-bottom="0" /><g
     inkscape:groupmode="layer"
     id="layer2"
     inkscape:label="Background"
     transform="translate(0.03153977,-941.66054)" /><path
     display="none"
     d="m 1044.0392,659.87443 c 0,0 -19.0836,-0.022 -0.6989,-132.6935 18.3846,-132.6712 28.5813,-179.632 47.3029,-287.7371 7.058,-16.1438 -68.3862,-92.2231 -128.91526,-197.740399 -61.7515,-107.648 -143.6714,-235.812391 -188.7294,-280.445791 0,0 174.6051,-335.45411 237.81896,-349.6864 0,0 301.3812,108.86 337.0663,144.54509 0,0 -1.6885,91.67521 -28.6427,104.22041 -26.9543,12.5452 -108.8787,44.596 -154.5442,34.6042 0,0 -66.5129,-72.40351 -90.3392,-83.50271 0,0 -6.2708,4.3005 1.4514,23.86791 7.7223,19.5674 -10.4012,69.4088 -39.2782,89.5321 0,0 -21.8448,3.1385 -20.069,6.7997 1.7759,3.6612 5.1862,8.7151 30.2112,12.0414 25.0249,3.3263 41.4226,16.8926 51.1404,21.7706 9.7179,4.8781 39.9987,16.8593 64.2749,23.7075 0,0 237.1202,313.25779 237.1202,342.05299 0,0 -71.9669,66.2099 -101.9054,69.0026 0,0 -4.9395,0.036 0,4.9752 4.9395,4.9394 64.5757,-0.9453 70.8878,5.3668 6.3121,6.3121 2.0121,22.6842 6.6121,38.0059 4.6,15.3218 22.4229,131.2911 18.4923,150.0347 0,0 -2.1134,15.7976 3.9779,28.4371 2.6931,15.3368 7.0638,82.1619 5.3597,88.0372 -1.7042,5.8755 3.834,11.4137 3.834,11.4137 0,0 6.1136,-2.9048 6.1136,-14.1913 0,-11.2867 -14.7137,-261.0466 -3.911,-270.7197 0,0 10.1158,-12.895 18.9054,-12.895 8.7897,0 24.7629,-16.0286 32.1096,-20.0052 0,0 4.1583,-5.0769 -6.9741,-10.9508 -11.1323,-5.8739 -31.7252,-18.7007 -41.3689,-59.7083 -11.6437,-20.0076 -24.2794,-66.087199 -42.3224,-107.917299 -18.043,-41.8301 -13.7299,-36.4236001 -13.7299,-36.4236001 0,0 -95.3713,-114.5455009 -124.6481,-153.1061009 0,0 -16.1036,-21.26449 0,-20.37089 16.1036,0.8935 144.0354,21.67409 160.3262,34.79539 0,0 53.0165,4.6835 81.2068,39.6826 32.7279,29.034701 57.3043,56.303101 68.4141,60.484401 0,0 8.8715,5.9367 12.4072,14.309 3.5357,8.3723 10.1061,8.5808 13.7668,3.4523 3.6608,-5.1286 12.3208,-17.4926 16.6698,-17.4926 4.3491,0 116.9965,-105.421801 123.0477,-105.421801 6.0514,0 12.3269,-9.6339 14.3142,6.1003 1.9872,15.7341 -14.4666,140.5987009 -25.387,151.5191009 -1.9001,9.1588001 -23.234,109.7160991 -34.1799,133.0905991 -10.9459,23.3745 -15.9235,16.6872 -38.3097,46.5308 0,0 -18.4618,35.0239 -29.6478,46.21 -11.186,11.1861 -20.6222,22.6746 -22.309,29.0284 -1.6869,6.3539 -13.3855,144.1783 -8.6575,181.5168 0,39.3384 0.7406,137.0069 -2.4326,150.9332 -3.1732,13.9263 -6.3809,32.405 -6.3809,48.0717 0,0 1.8606,13.4637 -7.7947,14.3201 -9.6553,0.8564 -501.6557,2.5487 -501.6557,2.5487 z"
     id="path3"
     inkscape:connector-curvature="0"
     style="display:none;fill:#ff0000" /><g
     inkscape:groupmode="layer"
     id="layer1"
     inkscape:label="Fist"
     transform="translate(0.03153977,-941.66054)" /><g
     inkscape:groupmode="layer"
     id="layer3"
     inkscape:label="La tech en grève"
     transform="translate(0.03153977,-941.66054)"><flowRoot
       xml:space="preserve"
       id="flowRoot856"
       style="font-style:normal;font-variant:normal;font-weight:normal;font-stretch:normal;font-size:18.66666603px;line-height:0px;font-family:'Liberation Sans';-inkscape-font-specification:'Liberation Sans';letter-spacing:0px;word-spacing:0px;fill:#000000;fill-opacity:1;stroke:none;stroke-width:1px;stroke-linecap:butt;stroke-linejoin:miter;stroke-opacity:1"><flowRegion
         id="flowRegion858"><rect
           id="rect860"
           width="50.652637"
           height="48.70446"
           x="886.42114"
           y="1166.5951" /></flowRegion><flowPara
         id="flowPara862" /></flowRoot><flowRoot
       xml:space="preserve"
       id="flowRoot1310"
       style="font-style:normal;font-variant:normal;font-weight:normal;font-stretch:normal;font-size:18.66666603px;line-height:0px;font-family:'Liberation Sans';-inkscape-font-specification:'Liberation Sans';letter-spacing:0px;word-spacing:0px;fill:#000000;fill-opacity:1;stroke:none;stroke-width:1px;stroke-linecap:butt;stroke-linejoin:miter;stroke-opacity:1"><flowRegion
         id="flowRegion1312"><rect
           id="rect1314"
           width="907.85114"
           height="120.78706"
           x="120.78706"
           y="1435.4437" /></flowRegion><flowPara
         id="flowPara1316" /></flowRoot><flowRoot
       xml:space="preserve"
       id="flowRoot1318"
       style="font-style:normal;font-variant:normal;font-weight:normal;font-stretch:normal;font-size:96px;line-height:0px;font-family:'Fira Code';-inkscape-font-specification:'Fira Code, Normal';font-variant-ligatures:normal;font-variant-caps:normal;font-variant-numeric:normal;font-feature-settings:normal;text-align:start;letter-spacing:0px;word-spacing:0px;writing-mode:lr-tb;text-anchor:start;fill:#000000;fill-opacity:1;stroke:none;stroke-width:1px;stroke-linecap:butt;stroke-linejoin:miter;stroke-opacity:1"><flowRegion
         id="flowRegion1320"
         style="font-style:normal;font-variant:normal;font-weight:normal;font-stretch:normal;font-size:96px;font-family:'Fira Code';-inkscape-font-specification:'Fira Code, Normal';font-variant-ligatures:normal;font-variant-caps:normal;font-variant-numeric:normal;font-feature-settings:normal;text-align:start;writing-mode:lr-tb;text-anchor:start"><rect
           id="rect1322"
           width="923.43652"
           height="105.20163"
           x="112.99435"
           y="1412.0656"
           style="font-style:normal;font-variant:normal;font-weight:normal;font-stretch:normal;font-size:96px;font-family:'Fira Code';-inkscape-font-specification:'Fira Code, Normal';font-variant-ligatures:normal;font-variant-caps:normal;font-variant-numeric:normal;font-feature-settings:normal;text-align:start;writing-mode:lr-tb;text-anchor:start" /></flowRegion><flowPara
         id="flowPara1326" /></flowRoot><rect
       style="fill:#ca0000;fill-opacity:1;fill-rule:evenodd;stroke:#000000;stroke-width:0.77231079px;stroke-linecap:butt;stroke-linejoin:miter;stroke-opacity:1"
       id="rect845"
       width="581.58325"
       height="1883.9753"
       x="987.8457"
       y="-2628.2664"
       transform="rotate(90)" /><g
       id="g841"
       transform="matrix(0.24822302,0,0,0.24822302,1059.2072,1096.5612)"><g
         transform="translate(0,78.99948)"
         id="g5"><path
           inkscape:connector-curvature="0"
           id="path7"
           d="m 1698.8696,714.1502 c 8.1627,-4.0903 12.3269,-9.6339 14.3141,6.1002 1.9873,15.7342 -18.0509,137.929 -25.387,151.5192 -4.4431,8.2311 -23.2339,109.7161 -34.1798,133.0906 -10.9459,23.3745 -15.9235,16.6872 -38.3097,46.5308 0,0 -18.4619,35.0238 -29.6479,46.2098 -11.186,11.186 -20.6222,22.6747 -22.309,29.0286 -1.6868,6.3539 -13.3855,144.1783 -8.6575,181.5167 0,39.3385 0.7407,137.0071 -2.4325,150.9335 -3.1732,13.9263 -6.3809,32.405 -6.3809,48.0717 0,0 1.8606,13.4637 -7.7947,14.3201 -9.6553,0.8564 -501.6561,2.549 -501.6561,2.549 0,0 -19.0837,-0.022 -0.699,-132.6936 18.3848,-132.6711 28.5814,-179.632 47.303,-287.7371 7.058,-16.1438 -68.3862,-92.2231 -128.9153,-197.7404 C 892.3659,798.2011 765.388,665.4916 765.388,625.4033 c 0,-40.0883 180.6624,-358.4637 237.819,-349.6864 48.5797,7.4601 332.4727,128.8253 337.0663,144.545 4.5938,15.7197 -1.6885,91.6752 -28.6427,104.2204 -26.9542,12.5452 -108.8785,44.5961 -154.5441,34.6042 0,0 -66.5129,-72.4035 -90.3392,-83.5027 0,0 -6.2709,4.3005 1.4514,23.8679 7.7223,19.5674 -10.4012,69.4088 -39.2783,89.532 0,0 -21.8448,3.1385 -20.0689,6.7997 1.7759,3.6612 5.1862,8.7152 30.2111,12.0415 25.025,3.3262 41.4227,16.8925 51.1405,21.7706 9.7178,4.878 44.3859,12.0288 64.2749,23.7075 19.889,11.6787 233.6201,327.553 233.389,342.6786 -0.2312,15.1256 -68.2357,65.5842 -98.1743,68.3768 0,0 -4.9395,0.036 0,4.9753 4.9395,4.9394 64.5758,-0.9453 70.8879,5.3668 6.312,6.3121 2.0121,22.6842 6.6121,38.0059 4.5999,15.3218 22.4229,131.2911 18.4922,150.0345 0,0 -2.1134,15.7977 3.978,28.4373 2.693,15.3367 7.0638,82.1617 5.3596,88.0372 -1.7042,5.8755 3.8341,11.4138 3.8341,11.4138 0,0 6.1136,-2.9048 6.1136,-14.1914 0,-11.2867 -14.7139,-261.0466 -3.911,-270.7197 0,0 10.1158,-12.895 18.9054,-12.895 8.7896,0 24.7629,-16.0286 32.1096,-20.0054 0,0 4.1582,-5.0769 -6.9741,-10.9508 -11.1324,-5.8738 -31.7253,-18.7006 -41.3689,-59.7082 -11.6437,-20.0076 -24.2795,-66.0872 -42.3225,-107.9173 -18.043,-41.8301 -13.7297,-36.4236 -13.7297,-36.4236 0,0 -95.3715,-114.5455 -124.6481,-153.1061 0,0 -16.1036,-21.2644 0,-20.3709 16.1036,0.8936 141.8162,27.4501 160.326,34.7954 18.51,7.3454 53.0166,4.6835 81.2069,39.6826 32.7278,29.0346 57.3042,56.303 68.4139,60.4844 0,0 8.8716,5.9366 12.4073,14.309 3.5358,8.3724 10.1061,8.5809 13.7668,3.4523" /><path
           inkscape:connector-curvature="0"
           id="path9"
           d="m 1787.6073,568.0131 -65.201,-66.7341 c -10.3391,-10.711 -33.6136,-24.843 -45.4854,-13.3835 L 1484.6812,718.091 c -11.8717,11.4595 -13.1255,29.599 -2.7863,40.31 l 52.3232,54.205 c 10.3392,10.7111 28.5117,10.0986 40.3833,-1.3609 L 1784.821,608.3232 c 11.8716,-11.4596 13.1254,-29.5991 2.7863,-40.3101 z" /><path
           inkscape:connector-curvature="0"
           id="path11"
           d="m 1643.0168,417.7045 -78.1154,-77.1882 c -20.2834,-16.0252 -49.9905,-12.5411 -66.0156,7.7423 l -178.5674,255.44 c -16.0251,20.2834 -12.5411,49.9904 7.7422,66.0156 l 84.0931,40.1989 c 20.2834,16.0251 49.9905,12.5411 66.0156,-7.7422 L 1650.759,483.7201 c 16.0253,-20.2834 12.5413,-49.9905 -7.7422,-66.0156 z" /><path
           inkscape:connector-curvature="0"
           id="path13"
           d="m 1179.1563,329.5342 -95.4225,-40.9615 c -10.0885,-6.4694 -35.0616,-18.9906 -38.0463,-29.7581 -3.453,-12.4573 21.4777,-33.8608 28.9623,-45.5325 l 74.2036,-115.7154 c 13.954,-21.7603 43.1748,-28.1472 64.9351,-14.1932 l 80.5052,51.6248 c 12.0575,7.732 26.9176,17.7467 28.6897,30.987 1.426,10.6545 -8.2745,24.2453 -14.4965,33.948 l -74.2036,115.7154 c -13.954,21.7601 -33.3668,27.8395 -55.127,13.8855 z" /><path
           inkscape:connector-curvature="0"
           id="path15"
           d="m 1397.0585,174.5955 99.6362,59.6512 c 22.1791,13.2784 29.4614,42.2889 16.1831,64.4679 l -69.3453,115.8284 c -5.8326,9.7422 -13.2351,15.5906 -19.8616,23.8525 -2.8053,3.4977 -11.2585,10.2083 -18.75,21.25 -17.42,25.6758 -44.3032,60.9567 -53,55.75 -17.2906,-26.5753 6.9843,-72.4065 6.0667,-97.2881 -0.8119,-22.0154 -62.1219,-38.5475 -78.5593,-47.0327 -10.4017,-6.2274 -32.9929,-10.3586 -36.2573,-21.1792 -3.6959,-12.2513 13.0236,-31.5115 20.0743,-43.2887 l 69.3453,-115.8284 c 13.2784,-22.1789 42.2889,-29.4613 64.4679,-16.1829 z" /><path
           inkscape:connector-curvature="0"
           id="path17"
           d="m 1330.9209,542.6456 c 0,0 4.875,0.125 0.375,9 -5.75,8.625 -70.5,81.125 -77.875,92.125 -7.375,11 -11.4301,14.0614 -16.25,12.375 -39.3053,-13.7523 -113.8053,-63.7523 -124.75,-76.5 -5.4135,-6.3053 -11.2219,-26.419 12,-31 14.1115,-0.7523 14.25,4.5 25.5,23.25 11.25,18.75 50.75,6.5 69.25,1.5" /></g><path
         sodipodi:nodetypes="cccccccsccccccccccccscscccccccsccccccccccccccccccccccccsccccccccccssccccssccccssccccccccccsccsscccccccccsssccccccssscccccssccccsccccccccccccsccccccsscccsccccccccccccccccccsscccsccccccccsccccccccsscc"
         inkscape:connector-curvature="0"
         id="path5117"
         d="m 671.5635,489.71583 c -4.97006,1.39137 -17.5086,5.8158 -21.02958,7.42068 l -2.00966,0.91595 7.21823,19.39167 7.21823,19.39166 -10.04961,6.25702 c -5.52725,3.44132 -10.15946,6.24522 -10.29378,6.23085 -0.13432,-0.0144 -3.87141,-9.75023 -8.30456,-21.63529 l -8.06029,-21.60919 -8.43693,3.144 -8.43691,3.14403 8.69956,23.32233 8.69954,23.32231 -10.15631,6.34607 -10.15639,6.34604 -9.50378,-25.47133 -9.5038,-25.47136 -8.43452,3.15024 -8.43452,3.15023 10.11345,27.10558 c 5.56236,14.90807 10.06667,27.20797 10.00945,27.3332 -0.16996,0.37234 -20.10053,12.72156 -20.27402,12.56204 -0.0875,-0.0806 -5.10702,-13.23404 -11.1542,-29.22989 -6.04718,-15.99583 -11.05982,-29.15159 -11.13918,-29.23504 -0.0791,-0.0836 -3.82701,1.29533 -8.32814,3.06397 l -8.18376,3.21566 11.6216,31.1539 11.6216,31.15387 -9.92828,6.16089 c -5.46059,3.38847 -10.07214,6.22138 -10.24806,6.29536 -0.17758,0.0747 -5.90452,-14.65907 -12.88209,-33.14189 l -12.56235,-33.27638 -8.38936,2.97 -8.38944,2.97001 13.09662,35.10734 13.09669,35.10731 -35.86129,22.29682 -35.86128,22.29687 -11.68023,2.79469 -11.68022,2.79471 -15.35852,-41.16796 -15.35851,-41.16796 31.94164,-11.91744 31.94169,-11.91745 -10.36039,-27.77062 -10.36041,-27.77065 -31.94232,11.91579 -31.94227,11.91574 -15.50512,-41.56081 -15.50509,-41.56078 10.5422,-5.61593 10.54224,-5.61597 41.68602,-6.62346 41.68608,-6.6235 13.02726,34.91684 c 7.16505,19.2042 13.14519,34.97061 13.28926,35.03639 0.14408,0.0658 3.97168,-1.266 8.50575,-2.95952 l 8.24372,-3.07914 -12.51548,-33.5448 -12.51552,-33.54483 11.93456,-1.8724 11.93453,-1.87233 11.63565,31.18624 11.63565,31.18622 8.43793,-3.15185 8.43795,-3.15185 -11.07857,-29.2993 c -6.09325,-16.11461 -11.03554,-29.39367 -10.98286,-29.50903 0.1126,-0.24663 22.70756,-3.82535 23.37435,-3.70216 0.29309,0.0542 4.03073,9.67971 10.56161,27.19934 l 10.10805,27.11552 8.2462,-3.07275 c 4.53543,-1.69006 8.27815,-3.14275 8.31725,-3.22834 0.0391,-0.0856 -4.20066,-11.57073 -9.42152,-25.5227 -5.22091,-13.95196 -9.46249,-25.43052 -9.42575,-25.50788 0.0356,-0.0778 5.34598,-0.96498 11.79821,-1.97239 l 11.73139,-1.8317 8.64405,23.16648 c 4.75416,12.74155 8.76182,23.22025 8.90575,23.28601 0.14403,0.0658 3.88693,-1.23458 8.3177,-2.88965 l 8.05583,-3.00908 -7.97374,-21.72431 -7.9737,-21.72427 11.90567,-1.87962 11.90558,-1.87965 7.22085,19.3509 7.22078,19.35093 6.83248,-2.58707 c 12.39887,-4.69469 21.99088,-7.64035 32.54818,-9.9954 25.88975,5.43008 38.86917,42.25524 5.08127,59.35319 z m -319.82578,18.57073 12.3747,33.1724 -8.33769,3.11423 c -4.58576,1.71282 -8.42425,3.07472 -8.53009,3.02641 -0.10583,-0.0482 -3.26165,-4.60949 -7.01311,-10.13589 l -6.82077,-10.04805 -47.07898,17.67882 -47.07898,17.6788 -4.24001,-11.37246 -4.24,-11.37244 -31.9624,11.9079 -31.96232,11.90788 -3.97634,-10.91769 -3.9763,-10.91772 89.97272,-33.56648 c 49.485,-18.46156 90.09022,-33.51286 90.23383,-33.44729 0.14354,0.0656 5.82963,15.04677 12.63574,33.29158 z m 74.9518,41.14378 6.15076,16.49171 -38.82097,14.48373 -38.82091,14.48373 1.41447,12.21261 1.41453,12.21264 -42.77668,15.95941 c -23.52712,8.77765 -42.86342,15.91978 -42.96951,15.87135 -0.10609,-0.0484 -6.71863,-17.49753 -14.69465,-38.77576 l -14.50184,-38.68773 42.88628,-16.01177 42.88624,-16.01174 6.97604,10.03004 6.97602,10.03002 38.73399,-14.44971 c 21.30368,-7.94734 38.79286,-14.42284 38.86476,-14.38999 0.0721,0.0329 2.89858,7.48101 6.28147,16.55146 z m -29.88895,80.22448 12.29468,32.95782 -1.50955,0.66925 c -0.83026,0.36811 -41.32558,15.55175 -89.98954,33.74129 l -88.47996,33.07192 -4.06577,-10.94822 -4.06577,-10.94824 31.88277,-11.76109 31.88271,-11.76109 -4.1834,-11.18817 -4.18347,-11.18814 47.00813,-17.54212 47.00818,-17.54216 -1.26901,-11.74601 c -0.69794,-6.4603 -1.26111,-11.91626 -1.25153,-12.12431 0.015,-0.32258 16.12617,-6.87375 16.49584,-6.70756 0.0718,0.0323 5.66363,14.88996 12.42567,33.01677 z m -168.0763,-69.64096 2.04504,5.49665 -27.78656,10.35193 -27.78658,10.3519 -1.92169,-5.39349 -1.92164,-5.39352 27.63011,-10.47015 c 15.1965,-5.75858 27.64492,-10.46335 27.66315,-10.45506 0.0182,0.008 0.95334,2.4886 2.07817,5.51174 z m 8.21819,22.5665 2.02387,5.48059 -27.53277,10.18593 c -15.143,5.60225 -27.623,10.18057 -27.73326,10.17402 -0.11029,-0.006 -1.07006,-2.35561 -2.13277,-5.22022 l -1.93223,-5.20838 27.64162,-10.44624 27.64169,-10.44626 z m 8.43874,22.08154 2.01287,5.41021 -27.67915,10.30381 -27.67916,10.3038 -1.97146,-5.26915 -1.97152,-5.26914 12.16844,-4.68867 c 6.69264,-2.57877 19.12968,-7.27899 27.6378,-10.44487 l 15.46926,-5.75615 z m 8.2016,21.98413 2.01055,5.40387 -20.34694,7.53676 c -11.19077,4.14522 -23.66171,8.7479 -27.71311,10.22818 l -7.36625,2.69145 -1.97101,-5.29873 -1.97101,-5.29873 27.50988,-10.32583 c 15.13041,-5.67921 27.58357,-10.32923 27.67364,-10.33336 0.09,-0.004 1.06847,2.42425 2.17425,5.39639 z m 8.35614,22.39841 2.02153,5.43345 -27.7169,10.1906 -27.71689,10.19059 -1.97379,-5.27357 -1.9738,-5.27358 27.47988,-10.35727 c 15.11388,-5.6965 27.56496,-10.35418 27.66911,-10.35045 0.10412,0.004 1.09902,2.45184 2.21086,5.44023 z m 8.34026,22.35575 2.0158,5.41789 -27.729,10.18567 -27.72894,10.18563 -1.9524,-5.24862 -1.95233,-5.24865 27.52919,-10.4172 c 15.14104,-5.72944 27.5906,-10.38918 27.66555,-10.35489 0.0749,0.0342 1.04349,2.5003 2.15213,5.48017 z"
         style="fill:#000000;stroke-width:0.28613615" /><path
         sodipodi:nodetypes="cccccccsccccccccccccscscccccccsccccccccccccccccccccccccsccccccccccssccccssccccssccccccccccsccsscccccccccsssccccccssscccccssccccsccccccccccccsccccccsscccsccccccccccccccccccsscccsccccccccsccccccccsscc"
         inkscape:connector-curvature="0"
         id="path5117-3"
         d="m 604.00597,263.90918 c -4.62848,-2.28354 -16.91588,-7.364 -20.60837,-8.52089 l -2.10748,-0.66035 -7.57774,19.25403 -7.57773,19.25402 -11.65869,-2.05425 c -6.4122,-1.12984 -11.73253,-2.13639 -11.82292,-2.2368 -0.0904,-0.10041 3.62997,-9.84267 8.26751,-21.64946 l 8.43191,-21.46692 -8.37937,-3.29432 -8.37945,-3.2943 -9.10015,23.16895 -9.10015,23.16894 -11.7976,-2.05926 -11.7976,-2.0593 9.93675,-25.30554 9.93677,-25.3056 -8.38175,-3.28807 -8.38174,-3.28808 -10.5744,26.92912 c -5.8159,14.81098 -10.67752,26.97408 -10.80372,27.02908 -0.37524,0.16362 -23.45698,-3.95493 -23.47963,-4.18955 -0.0114,-0.11849 5.0369,-13.26088 11.21846,-29.20528 6.18149,-15.94441 11.23633,-29.08401 11.23302,-29.1991 -0.003,-0.11508 -3.71356,-1.59168 -8.24498,-3.28126 l -8.23878,-3.07189 -12.15541,30.9495 -12.15542,30.9495 -11.50415,-2.04478 c -6.32734,-1.12466 -11.65166,-2.09582 -11.83205,-2.15826 -0.18206,-0.063 5.39501,-14.85414 12.54486,-33.271 l 12.87268,-33.15756 -8.22781,-3.39208 -8.2278,-3.39208 -13.69775,34.87717 -13.69768,34.87721 -41.5826,-7.35346 -41.58254,-7.35341 -10.56016,-5.7203 -10.56009,-5.72025 16.06168,-40.89876 16.0617,-40.89875 31.73338,12.4613 31.73347,12.46133 10.83469,-27.58902 10.83472,-27.58906 -31.73284,-12.463 -31.73276,-12.46298 16.21492,-41.28905 16.21492,-41.28902 11.59724,2.86041 11.59723,2.86039 35.45081,22.90927 35.45088,22.9093 -13.62217,34.68906 c -7.49215,19.07898 -13.57035,34.80784 -13.50703,34.95302 0.0633,0.1452 3.80165,1.71011 8.30744,3.4776 l 8.19223,3.21356 13.08681,-33.32606 13.08682,-33.3261 10.13348,6.57661 10.1334,6.57664 -12.16652,30.98298 -12.16659,30.98295 8.38535,3.28914 8.38542,3.28916 11.321,-29.20646 c 6.22659,-16.06357 11.41611,-29.24797 11.53241,-29.29864 0.24847,-0.10838 19.4562,12.31754 19.87024,12.85454 0.18197,0.23605 -3.46433,9.89657 -10.30345,27.29818 l -10.58499,26.93291 8.1898,3.21997 c 4.50449,1.77097 8.2604,3.18922 8.34664,3.15162 0.0859,-0.0378 4.60071,-11.41756 10.03231,-25.28885 5.43152,-13.87132 9.94024,-25.24761 10.01919,-25.28068 0.0782,-0.0342 4.62354,2.85198 10.0988,6.41115 l 9.95511,6.47122 -9.03743,23.01588 c -4.97059,12.65868 -8.98559,23.13456 -8.92241,23.27962 0.0634,0.14511 3.71754,1.67689 8.12074,3.40401 l 8.00564,3.14024 8.5732,-21.49479 8.57321,-21.49475 10.11679,6.55193 10.1168,6.55188 -7.54856,19.22543 -7.54864,19.22542 6.81321,2.63734 c 12.3639,4.78603 21.47057,8.99938 30.90131,14.29698 15.64371,21.33165 0.71152,57.40916 -35.85584,47.57078 z M 353.55333,64.14214 340.6104,97.09699 l -8.28561,-3.2502 c -4.55711,-1.78763 -8.32367,-3.33742 -8.37018,-3.44405 -0.0465,-0.10658 0.65066,-5.60914 1.5491,-12.22785 l 1.63361,-12.03402 -46.84796,-18.28221 -46.84796,-18.28222 4.43898,-11.29629 4.43897,-11.2962502 -31.74249,-12.48227 -31.74243,-12.4822198 4.33152,-10.7817 4.33159,-10.78169 89.38461,35.1025598 C 326.04369,14.865 366.3184,30.77953 366.38152,30.92424 c 0.063,0.14466 -5.70962,15.09272 -12.82819,33.2179 z m 28.31053,80.67897 -6.43556,16.38267 -38.56768,-15.14542 -38.56757,-15.14537 -7.10315,10.03464 -7.10312,10.0347 -42.49744,-16.68879 c -23.37353,-9.17881 -42.53552,-16.7762 -42.58215,-16.8831 -0.0466,-0.10687 6.68463,-17.51055 14.95823,-38.67486 l 15.04293,-38.48055 42.61399,16.72301 42.61392,16.72301 -1.50602,12.12429 -1.50601,12.12428 38.48022,15.11265 c 21.16406,8.31193 38.50605,15.17196 38.53758,15.24441 0.0315,0.0725 -2.83856,7.50398 -6.37817,16.51443 z m -75.8231,39.75138 -12.85916,32.74171 -1.57053,-0.50999 c -0.86381,-0.28048 -41.1451,-16.02313 -89.51387,-34.98369 l -87.94325,-34.47378 4.28535,-10.86416 4.28536,-10.86416 31.58519,12.53836 31.58514,12.53832 4.35804,-11.12131 4.35797,-11.12133 46.70394,18.33664 46.70401,18.33664 6.89981,-9.59018 c 3.7949,-5.2746 7.01938,-9.71165 7.16545,-9.8601 0.22659,-0.23008 16.59342,5.65332 16.75759,6.02391 0.0319,0.0721 -5.72846,14.86513 -12.80102,32.87306 z M 227.4477,20.49129 225.29903,25.94826 197.70379,15.09661 170.10855,4.2449398 l 2.1716,-5.29781 2.17165,-5.2978 27.55775,10.65917 C 217.16626,10.17101 229.57377,14.98262 229.5818,15.00097 c 0.008,0.0184 -0.95238,2.48897 -2.1341,5.49032 z m -8.95368,22.28489 -2.15372,5.43088 -27.29548,-10.80571 C 174.03233,31.45822 161.68576,26.5314 161.60806,26.45289 c -0.0778,-0.0785 0.77669,-2.46793 1.89878,-5.30979 l 2.04013,-5.16708 27.55035,10.68464 27.55041,10.68468 z m -8.46567,22.07124 -2.11489,5.37114 -27.48318,-10.81572 -27.48315,-10.81574 2.05151,-5.23849 2.05148,-5.23855 12.18837,4.63662 c 6.7036,2.55014 19.0996,7.35755 27.54657,10.68313 l 15.35812,6.04646 z m -8.57713,21.84035 -2.11238,5.36488 -20.17778,-7.9786 c -11.09774,-4.3882 -23.45383,-9.29083 -27.45793,-10.89469 l -7.28023,-2.91613 2.07161,-5.26021 2.07161,-5.26023 27.37187,10.6863 c 15.05451,5.87744 27.42899,10.73297 27.49879,10.79004 0.0698,0.0571 -0.82371,2.51797 -1.98556,5.46864 z m -8.73875,22.25193 -2.12397,5.39423 -27.43566,-10.92521 -27.43563,-10.92519 2.05273,-5.24336 2.05273,-5.24336 27.37055,10.64286 c 15.05375,5.85354 27.43181,10.70198 27.50683,10.77431 0.075,0.0723 -0.81939,2.5589 -1.98758,5.52572 z m -8.72209,22.20955 -2.11785,5.37884 -27.44136,-10.93697 -27.4413,-10.93693 2.052,-5.21049 2.05205,-5.21047 27.44728,10.63119 c 15.09597,5.84714 27.47426,10.69304 27.50714,10.76861 0.0329,0.0755 -0.89309,2.55789 -2.05796,5.51622 z"
         style="fill:#000000;stroke-width:0.28613615" /><path
         sodipodi:nodetypes="cccccccsccccccccccccscscccccccsccccccccccccccccccccccccsccccccccccssccccssccccssccccccccccsccsscccccccccsssccccccssscccccssccccsccccccccccccsccccccsscccsccccccccccccccccccsscccsccccccccsccccccccsscc"
         inkscape:connector-curvature="0"
         id="path5117-3-6"
         d="m 771.3862,153.03821 c -2.31848,-4.61108 -9.06486,-16.06868 -11.31503,-19.21661 l -1.28429,-1.79676 -17.64788,10.80235 -17.64796,10.8023 -8.06779,-8.66352 c -4.43718,-4.76485 -8.0772,-8.77349 -8.08885,-8.9081 -0.0117,-0.13461 8.82703,-5.66904 19.64164,-12.29866 l 19.66281,-12.05397 -4.70329,-7.67758 -4.70336,-7.67763 -21.22164,13.00982 -21.22164,13.0098 -8.17562,-8.75118 -8.1756,-8.7512 23.17662,-14.21108 23.17658,-14.21119 -4.7089,-7.67399 -4.70897,-7.67404 -24.66365,15.1228 C 677.1444,84.5373 665.93633,91.31635 665.80243,91.28419 665.40444,91.18849 649.46296,73.9957 649.58624,73.7948 c 0.0624,-0.10133 12.00932,-7.54965 26.54902,-16.5515 14.53958,-9.00195 26.49021,-16.44396 26.55693,-16.5378 0.0693,-0.0919 -2.00509,-3.50769 -4.60395,-7.58623 l -4.72511,-7.41537 -28.34761,17.37921 -28.34768,17.37916 -7.95014,-8.56282 c -4.37255,-4.70958 -8.03714,-8.69245 -8.14344,-8.85092 -0.10741,-0.15995 13.255,-8.60558 30.05705,-18.99749 l 30.25044,-18.7093902 -4.52346,-7.66433 -4.52338,-7.66428 -31.94495,19.58485 -31.9449,19.5849202 -28.75899,-30.9210202 -28.75894,-30.9208998 -4.98233,-10.92772 -4.98232,-10.92764 37.45948,-22.96681 37.45948,-22.96677 17.82054,29.06404 17.82058,29.06411 25.269,-15.49267 25.269,-15.49271 -17.81912,-29.06511 -17.81901,-29.06501 37.81693,-23.18597 37.81688,-23.18601 7.53301,9.26989 7.5331,9.2699 14.49312,39.6427 14.49318,39.64275 -31.77128,19.48027 c -17.47417,10.71416 -31.80152,19.60624 -31.83841,19.76028 -0.0373,0.15393 2.00404,3.65528 4.53547,7.78055 l 4.60259,7.50039 30.52282,-18.71491 30.52285,-18.71495 4.12592,11.35416 4.12579,11.35408 -28.37667,17.39924 -28.37677,17.3991198 4.7112,7.67707 4.71124,7.67713 26.6316,-16.49066 c 14.64737,-9.0698798 26.73244,-16.4665198 26.85581,-16.4368798 0.26371,0.0629 8.10811,21.5527798 8.11508,22.23084976 0.003,0.298 -8.72732,5.81183004 -24.66978,15.58058024 l -24.67438,15.11947 4.59682,7.50406 c 2.52832,4.12727 4.67165,7.52204 4.76314,7.54398 0.0913,0.0214 10.55063,-6.34122 23.24274,-14.14026 12.69213,-7.79907 23.14452,-14.16273 23.2274,-14.14159 0.0833,0.0196 1.97213,5.06183 4.19789,11.20116 l 4.04703,11.16257 -21.07936,12.9254 c -11.59359,7.10897 -21.10949,13.05138 -21.14643,13.20524 -0.0372,0.15383 1.95688,3.57806 4.43083,7.60936 l 4.4978,7.32943 19.79243,-11.99105 19.79241,-11.99102 4.12745,11.32439 4.12748,11.32434 -17.60743,10.79706 -17.60748,10.797 3.84906,6.20968 c 6.98488,11.26872 11.71497,20.11799 16.05056,30.02794 -0.36547,26.45053 -34.01886,46.24971 -57.27785,16.36685 z m -79.5471,-310.33151 -30.18431,18.50533 -4.65504,-7.58588 c -2.56029,-4.17227 -4.63287,-7.67844 -4.60579,-7.7916 0.0272,-0.11302 3.89864,-4.0849 8.60321,-8.82637 l 8.55387,-8.62077 -26.37738,-42.81592 -26.37737,-42.81596 10.34853,-6.3418 10.3485,-6.3418 -17.8152,-29.08628 -17.81517,-29.08621 9.95274,-5.99584 9.95279,-5.99581 50.19441,81.8677 c 27.60693,45.02727 50.16431,81.99332 50.12751,82.14685 -0.0363,0.15362 -13.64988,8.60645 -30.2513,18.78436 z m -26.00974,81.44984 -15.00641,9.19867 -21.65833,-35.32381 -21.65819,-35.32365 -11.71484,3.72978 -11.71484,3.72985 -23.86499,-38.92313 c -13.12572,-21.40767 -23.84272,-39.01585 -23.81556,-39.12926 0.0273,-0.11338 15.88475,-9.94882 35.23895,-21.85659 l 35.18949,-21.65048 23.93739,39.02066 23.93734,39.02063 -8.50642,8.76968 -8.50641,8.76968 21.60818,35.24491 c 11.88451,19.38466 21.59312,35.30785 21.57463,35.38466 -0.019,0.0766 -6.78644,4.27918 -15.03999,9.3384 z m -84.46677,-13.95281 -29.98908,18.38564 -0.94627,-1.35322 c -0.52047,-0.74427 -23.18666,-37.5771 -50.3692,-81.85069 l -49.4228,-80.49748 9.96556,-6.08947 9.96557,-6.08946 17.65587,29.03628 17.65582,29.03622 10.1785,-6.25092 10.17846,-6.25098 26.22966,42.7726 26.22969,42.77267 11.28477,-3.49755 c 6.20663,-1.92365 11.45338,-3.52246 11.65942,-3.55295 0.31946,-0.0471 9.83812,14.50907 9.74589,14.90375 -0.0179,0.0767 -13.52781,8.41344 -30.02181,18.52552 z m 36.12327,-178.31045 -5.00257,3.06098 -15.48745,-25.28625 -15.48743,-25.28628 4.92498,-2.92014 4.92501,-2.9201 15.57348,25.11004 c 8.5654,13.81046 15.56965,25.12587 15.565,25.14536 -0.005,0.0195 -2.25964,1.4128 -5.01102,3.09639 z m -20.57213,12.39244 -4.99087,3.03713 -15.27588,-25.069 c -8.4017,-13.78792 -15.2879,-25.15858 -15.30262,-25.26804 -0.0148,-0.10949 2.10674,-1.50186 4.71444,-3.09408 l 4.74129,-2.895 15.55223,25.12592 15.55227,25.12596 z m -20.05389,12.51593 -4.92391,3.01283 -15.41964,-25.19007 -15.41961,-25.19005 4.79339,-2.94515 4.79339,-2.94521 6.93477,11.04372 c 3.81412,6.07404 10.81172,17.37914 15.55014,25.12241 l 8.61532,14.07864 z m -20.00376,12.26448 -4.91812,3.00936 -11.2981,-18.5244 c -6.21394,-10.1884 -13.12231,-21.54548 -15.35193,-25.23789 l -4.05385,-6.71356 4.82252,-2.95037 4.82252,-2.95039 15.4088,25.01971 c 8.47482,13.76082 15.42624,25.09137 15.44757,25.17898 0.0213,0.0876 -2.17442,1.51346 -4.87941,3.16856 z m -20.38072,12.49563 -4.94504,3.02579 -15.31577,-25.24882 -15.31575,-25.2488 4.7973,-2.9483 4.79729,-2.94829 15.4339,24.98424 c 8.48863,13.74128 15.44718,25.06833 15.46348,25.17127 0.0163,0.10292 -2.19564,1.54872 -4.91541,3.21291 z m -20.34188,12.47182 -4.9309,3.01721 -15.31322,-25.26164 -15.3132,-25.26158 4.77691,-2.92251 4.77695,-2.92246 15.50217,25.02116 c 8.52616,13.76161 15.48643,25.08677 15.46715,25.1669 -0.0189,0.0801 -2.25385,1.50354 -4.96586,3.16292 z"
         style="fill:#000000;stroke-width:0.28613615" /><path
         sodipodi:nodetypes="cssscc"
         inkscape:connector-curvature="0"
         id="path5164"
         d="m 653.42206,465.07639 c 0,0 71.89841,-28.08404 125.98617,-37.91818 80.729,-14.678 211.60784,17.12434 326.58547,58.712 114.9777,41.58767 474.5887,283.77469 560.2104,398.75235 85.6217,114.97767 117.424,288.66734 119.8703,349.82574 2.4464,61.1583 7.339,159.0116 7.339,159.0116"
         style="fill:none;stroke:#000000;stroke-width:60;stroke-linecap:butt;stroke-linejoin:miter;stroke-miterlimit:4;stroke-dasharray:none;stroke-opacity:1" /><path
         inkscape:connector-curvature="0"
         id="path5166"
         d="m 614.28073,236.34422 c 112.53134,46.48033 347.37934,110.085 396.30597,156.56532 48.9267,46.48034 332.7014,171.24334 420.7694,239.74069 88.068,68.49733 273.9893,283.77467 349.8257,423.21567 75.8363,139.441 97.8533,234.848 97.8533,234.848"
         style="fill:none;stroke:#000000;stroke-width:60;stroke-linecap:butt;stroke-linejoin:miter;stroke-miterlimit:4;stroke-dasharray:none;stroke-opacity:1" /><path
         sodipodi:nodetypes="csssc"
         inkscape:connector-curvature="0"
         id="path5168"
         d="m 800.20208,142.16038 c 132.10199,217.72367 171.91348,225.5511 247.07972,294.78316 92.9606,85.62168 215.2773,127.20934 325.3623,203.04569 110.085,75.83633 154.119,161.458 271.543,205.492 117.424,44.034 217.7237,102.746 291.1137,166.35067"
         style="fill:none;stroke:#000000;stroke-width:60;stroke-linecap:butt;stroke-linejoin:miter;stroke-miterlimit:4;stroke-dasharray:none;stroke-opacity:1" /></g><flowRoot
       xml:space="preserve"
       id="flowRoot848"
       style="font-style:normal;font-variant:normal;font-weight:normal;font-stretch:normal;font-size:18.66666603px;line-height:131px;font-family:'Liberation Sans';-inkscape-font-specification:'Liberation Sans';letter-spacing:0px;word-spacing:0px;fill:#000000;fill-opacity:1;stroke:none;stroke-width:1px;stroke-linecap:butt;stroke-linejoin:miter;stroke-opacity:1"
       transform="matrix(0.63674349,0,0,0.63674349,1274.5364,357.74481)"><flowRegion
         id="flowRegion850"
         style="line-height:131px"><rect
           id="rect852"
           width="1575.0947"
           height="338.81726"
           x="137.75702"
           y="1116.2726"
           style="line-height:131px" /></flowRegion><flowPara
         id="flowPara854"
         style="font-style:normal;font-variant:normal;font-weight:bold;font-stretch:normal;font-size:146.66667175px;line-height:131px;font-family:'Fira Code';-inkscape-font-specification:'Fira Code, Bold';font-variant-ligatures:normal;font-variant-caps:normal;font-variant-numeric:normal;font-feature-settings:normal;text-align:center;writing-mode:lr-tb;text-anchor:middle">La tech en grève</flowPara></flowRoot><flowRoot
       xml:space="preserve"
       id="flowRoot1328"
       style="font-style:normal;font-variant:normal;font-weight:normal;font-stretch:normal;font-size:48px;line-height:0px;font-family:'Liberation Sans';-inkscape-font-specification:'Liberation Sans, Normal';font-variant-ligatures:normal;font-variant-caps:normal;font-variant-numeric:normal;font-feature-settings:normal;text-align:start;letter-spacing:0px;word-spacing:0px;writing-mode:lr-tb;text-anchor:start;fill:#000000;fill-opacity:1;stroke:none;stroke-width:1px;stroke-linecap:butt;stroke-linejoin:miter;stroke-opacity:1"
       transform="translate(1477.5404,-108.62986)"><flowRegion
         id="flowRegion1330"
         style="font-style:normal;font-variant:normal;font-weight:normal;font-stretch:normal;font-size:48px;font-family:'Liberation Sans';-inkscape-font-specification:'Liberation Sans, Normal';font-variant-ligatures:normal;font-variant-caps:normal;font-variant-numeric:normal;font-feature-settings:normal;text-align:start;writing-mode:lr-tb;text-anchor:start"><rect
           id="rect1332"
           width="1147.4771"
           height="194.81781"
           x="64.289886"
           y="1357.5166"
           style="font-style:normal;font-variant:normal;font-weight:normal;font-stretch:normal;font-size:48px;font-family:'Liberation Sans';-inkscape-font-specification:'Liberation Sans, Normal';font-variant-ligatures:normal;font-variant-caps:normal;font-variant-numeric:normal;font-feature-settings:normal;text-align:start;writing-mode:lr-tb;text-anchor:start" /></flowRegion><flowPara
         id="flowPara1344"
         style="font-style:normal;font-variant:normal;font-weight:normal;font-stretch:normal;font-size:74.66666412px;font-family:'Fira Code';-inkscape-font-specification:'Fira Code, Normal';font-variant-ligatures:normal;font-variant-caps:normal;font-variant-numeric:normal;font-feature-settings:normal;text-align:start;writing-mode:lr-tb;text-anchor:start">https://on<flowSpan
   style="font-style:normal;font-variant:normal;font-weight:bold;font-stretch:normal;font-size:74.66666412px;font-family:'Fira Code';-inkscape-font-specification:'Fira Code, Bold';font-variant-ligatures:normal;font-variant-caps:normal;font-variant-numeric:normal;font-feature-settings:normal;text-align:start;writing-mode:lr-tb;text-anchor:start"
   id="flowSpan1352">est</flowSpan>la.tech</flowPara></flowRoot></g></svg>